<svg xmlns="http://www.w3.org/2000/svg" id="Layer_1" data-name="Layer 1" viewBox="0 0 180 60"><defs><style> .cls-1 { fill: #fff; } .cls-1, .cls-2 { stroke-width: 0px; } .cls-2 { fill: #9ac168; } </style></defs><path class="cls-1" d="M135.7,55.8v-8.8c-.6.1-1.7.4-2.8.4-2.3,0-3.8-.8-3.8-3.6v-12.9h6.8v-9.3h-6.8v-10.1h-9.5v4.5c0,3.2-1.7,5.6-5.4,5.6h-1.7v9.3h6.1v14.8c0,6.9,4.4,11.1,11.5,11.1s5.1-.8,5.5-1"></path><path class="cls-1" d="M167.2,45.5c0-5.1-3.5-9.4-10.7-10.9l-4.6-.9c-1.5-.3-2.7-1.1-2.7-2.6s1.7-3,3.8-3c3.2,0,4.7,1.9,4.9,4.2l8.8-1.6c-.4-4-3.8-10.3-13.9-10.3s-13.3,5.1-13.3,11.5,2.9,9,10.3,10.6l4,.9c2.6.6,3.4,1.6,3.4,2.9s-1.3,3-4,3-5.3-2.3-5.4-4.7l-9,1.6c.3,3.8,3.8,10.9,14.6,10.9s13.8-5.8,13.8-11.7"></path><path class="cls-1" d="M23.4,40.6c0-1.6.2-3,.6-4.2,1.2-3.2,4.2-5.5,7.8-5.5s2.1.2,3,.6v-10.3c-1-.3-2-.5-3-.5-3.7,0-6.9,2-8.7,4.9v-4.2h-10.2v35.3h10.6v-16.1Z"></path><path class="cls-1" d="M75.8,21.5v21.9c0,7.4,4.7,13.5,13.2,13.5s6.6-1,8.6-3.3v3.2h10.8V21.5h-10.6v19.7c0,3.5-2.2,5.9-5.8,5.9s-5.6-2.6-5.6-6v-19.7h-10.6Z"></path><path class="cls-2" d="M55.3.9c9,0,16.2,7.3,16.2,16.2v1.9l-4.1,2.7c-.7.5-1.7.5-2.5,0l-4.1-2.7v-1.9c0-3.1-2.5-5.7-5.7-5.7s-5.7,2.5-5.7,5.7v4.3l-4.1-2.8c-.7-.5-1.6-.5-2.3,0l-4.1,2.8v-4.3c0-9,7.3-16.2,16.2-16.2"></path><path class="cls-1" d="M67.4,25.9c-.7.5-1.6.5-2.3,0l-4.2-2.8v18.2c0,3.5-2.2,5.9-5.8,5.9s-5.6-2.6-5.6-6v-15.6l-4.1-2.7c-.7-.5-1.7-.5-2.5,0l-4.1,2.7v17.8c0,7.4,4.7,13.5,13.2,13.5s6.6-1,8.6-3.3v3.2l4.3,2.9c.7.5,1.7.5,2.5,0l4.1-2.7V23.1l-4.2,2.8h0Z"></path></svg>